<?xml version="1.0" encoding="UTF-8"?>
<svg width="800" height="800" version="1.1" viewBox="0 0 800.00001 800.00001" xmlns="http://www.w3.org/2000/svg">
 <path d="m360.99 0l-15.199 85.592a321.47 321.47 0 0 0 -56.207 14.664l-55.715-66.234-67.523 38.986 28.908 80.787a321.47 321.47 0 0 0 -42.1 41.363l-79.967-28.996-38.984 67.523 64.111 54.395a321.47 321.47 0 0 0 -16.139 58.24l-82.172 14.592v77.971l82.146 14.945a321.47 321.47 0 0 0 15.455 58.885l-63.506 53.422 38.984 67.525 77.832-27.85a321.47 321.47 0 0 0 43.389 43.602l-28.062 77.402 67.523 38.984 53.357-62.893a321.47 321.47 0 0 0 59.459 15.953l14.408 81.141h77.971l14.787-81.266a321.47 321.47 0 0 0 58.766 -16.355l53.832 63.449 67.523-38.986-28.729-79.234a321.47 321.47 0 0 0 42.164 -42.447l79.721 28.527 38.984-67.525-65.621-55.199a321.47 321.47 0 0 0 15.168 -56.715l84.447-15.365v-77.971l-85.34-15.154a321.47 321.47 0 0 0 -15.189 -55.738l66.432-56.359-38.984-67.527-81.971 29.723a321.47 321.47 0 0 0 -40.646 -40.539l29.461-82.338-67.523-38.984-56.154 66.76a321.47 321.47 0 0 0 -55.572 -15.264l-15.555-85.49h-77.971zm39.014 275.04a124.96 124.96 0 0 1 124.96 124.96 124.96 124.96 0 0 1 -124.96 124.96 124.96 124.96 0 0 1 -124.96 -124.96 124.96 124.96 0 0 1 124.96 -124.96zm0 49.986a74.979 74.979 0 0 0 -74.979 74.979 74.979 74.979 0 0 0 74.979 74.979 74.979 74.979 0 0 0 74.979 -74.979 74.979 74.979 0 0 0 -74.979 -74.979z" color="#000000" color-rendering="auto" fill="#404040" image-rendering="auto" shape-rendering="auto" solid-color="#000000" stroke="#273b50" stroke-width=".05" style="isolation:auto;mix-blend-mode:normal"/>
</svg>
